$MeshFormat
2.2 0 8
$EndMeshFormat
$PhysicalNames
6
1 1 "bottom"
1 2 "right"
1 3 "top"
1 4 "left"
2 1 "Matrix"
2 2 "Inclusions"
$EndPhysicalNames
$Nodes
125
1 0 0 0
2 1 0 0
3 1 1 0
4 0 1 0
5 5.890305264509067e-15 0.2 0
6 0.2 0 0
7 1.000000000000006 0.2 0
8 0.8 -4.473054551494159e-15 0
9 5.843607868033617e-15 0.8 0
10 0.2 1 0
11 0.8 1.000000000000004 0
12 1.000000000000006 0.8 0
13 0.6000000000000001 0.25 0
14 0.8999999999999999 0.6 0
15 0 0.09999999999999998 0
16 0.1732050807568877 0.1000000000000001 0
17 0.09999999999999976 0.1732050807568879 0
18 0.1 0 0
19 0.8999999999999999 0.1732050807568877 0
20 0.8267949192431121 0.0999999999999997 0
21 1 0.09999999999999998 0
22 0.9 0 0
23 0 0.9 0
24 0.09999999999999998 1 0
25 0.09999999999999987 0.8267949192431122 0
26 0.1732050807568877 0.8999999999999999 0
27 0.8267949192431122 0.9000000000000001 0
28 0.8999999999999999 0.8267949192431123 0
29 0.9 1 0
30 1 0.9 0
31 0.5682507065662362 0.3581281634911196 0
32 0.4830830026003772 0.4319263990709037 0
33 0.3715370323453427 0.4479642883761865 0
34 0.2690278532109426 0.4011499148708513 0
35 0.2081014052771003 0.3063465113682852 0
36 0.2081014052771008 0.1936534886317132 0
37 0.2690278532109438 0.09885008512914761 0
38 0.3715370323453444 0.05203571162381326 0
39 0.4830830026003783 0.06807360092909678 0
40 0.5682507065662367 0.1418718365088811 0
41 0.8682507065662362 0.7081281634911196 0
42 0.7830830026003771 0.7819263990709038 0
43 0.6715370323453427 0.7979642883761865 0
44 0.5690278532109425 0.7511499148708514 0
45 0.5081014052771002 0.6563465113682851 0
46 0.5081014052771007 0.5436534886317131 0
47 0.5690278532109437 0.4488500851291476 0
48 0.6715370323453443 0.4020357116238132 0
49 0.7830830026003783 0.4180736009290967 0
50 0.8682507065662366 0.4918718365088811 0
51 0 0.68 0
52 0 0.5600000000000001 0
53 0 0.4399999999999999 0
54 0 0.32 0
55 0.6800000000000002 1 0
56 0.5600000000000001 1 0
57 0.4400000000000001 1 0
58 0.3200000000000001 1 0
59 1 0.32 0
60 1 0.4399999999999999 0
61 1 0.5600000000000001 0
62 1 0.68 0
63 0.3200000000000001 0 0
64 0.4400000000000001 0 0
65 0.5600000000000001 0 0
66 0.6800000000000002 0 0
67 0.1885483643538913 0.7891711781437571 0
68 0.2827048147617149 0.5048430234955956 0
69 0.4566042891027143 0.7498325428234456 0
70 0.7989721672228054 0.2217572503060447 0
71 0.1008966223365556 0.6192188402128347 0
72 0.3917758428796134 0.656454796625293 0
73 0.1779998852210345 0.4664448452064222 0
74 0.4091162694110049 0.9130339335595219 0
75 0.3458671539664371 0.7546873022049861 0
76 0.2962616548295312 0.677945686302016 0
77 0.5173462005914096 0.850418648587451 0
78 0.8951043998869612 0.2737745336766336 0
79 0.7274706428074857 0.1173007847646932 0
80 0.7411708038610012 0.3136507694100277 0
81 0.1044279451767079 0.3839976938593984 0
82 0.8967141397818108 0.3818079887383555 0
83 0.2879935792531956 0.8653183258286484 0
84 0.09716824634538279 0.729415924647025 0
85 0.6113400334839123 0.8954602124420509 0
86 0.3790193933628477 0.5556114203858097 0
87 0.7232741732515801 0.8883791992658916 0
88 0.0940333759546696 0.2765990662675616 0
89 0.1922520086696928 0.560219967709584 0
90 0.7013165531261493 0.2249065344141546 0
91 0.09247347748109841 0.5198312386501611 0
92 0.2064150340590773 0.6733113453863244 0
93 0.6282241611405397 0.08345192398221457 0
94 0.6489547398602011 0.317429972438724 0
95 0.4390052541305741 0.5004611331046336 0
96 0.2639055810425839 0.7475365722790092 0
97 0.8225894761596181 0.3275849294145683 0
98 0.9397899815234374 0.7538330127149553 0
99 0.5000000000000001 0.9362371338899349 0
100 0.447372754315962 0.5947336717282934 0
101 0.4033466508060825 0.8224750337882893 0
102 0.5546841438323901 0.07148498176644669 0
103 0.3058727608359031 0.5896712484100449 0
104 0.1898892722214464 0.3894847413262393 0
105 0.6457281000706595 0.1661839978381758 0
106 0.08660254037844373 0.08660254037844373 0
107 0.9133974596215562 0.08660254037844378 0
108 0.9133974596215563 0.9133974596215563 0
109 0.08660254037844373 0.9133974596215563 0
110 0.4168988269644767 0.1451340117989701 0
111 0.4163241698000124 0.3471852541470113 0
112 0.2955237938386144 0.2499999999999995 0
113 0.4952013734747324 0.3046379170179633 0
114 0.3995846561956884 0.2487290682002743 0
115 0.4938364276335854 0.1930744057425309 0
116 0.3263237379948918 0.1649730610431954 0
117 0.3266831517779502 0.3335625061604347 0
118 0.7938728768043256 0.5700110829845626 0
119 0.5937964425281304 0.5981971648791233 0
120 0.7148685143832639 0.7034127890249122 0
121 0.7405332137346406 0.4979918529141948 0
122 0.6988011140398021 0.6005919886567944 0
123 0.630299510189327 0.5152200486391312 0
124 0.626323737994891 0.6850269389568039 0
125 0.7931460357323341 0.6606784038713821 0
$EndNodes
$Elements
248
1 1 2 4 5 5 15
2 1 2 4 5 15 1
3 1 2 1 7 1 18
4 1 2 1 7 18 6
5 1 2 2 9 2 21
6 1 2 2 9 21 7
7 1 2 1 10 8 22
8 1 2 1 10 22 2
9 1 2 4 11 4 23
10 1 2 4 11 23 9
11 1 2 3 12 10 24
12 1 2 3 12 24 4
13 1 2 3 15 3 29
14 1 2 3 15 29 11
15 1 2 2 16 12 30
16 1 2 2 16 30 3
17 1 2 4 19 9 51
18 1 2 4 19 51 52
19 1 2 4 19 52 53
20 1 2 4 19 53 54
21 1 2 4 19 54 5
22 1 2 3 20 11 55
23 1 2 3 20 55 56
24 1 2 3 20 56 57
25 1 2 3 20 57 58
26 1 2 3 20 58 10
27 1 2 2 21 7 59
28 1 2 2 21 59 60
29 1 2 2 21 60 61
30 1 2 2 21 61 62
31 1 2 2 21 62 12
32 1 2 1 22 6 63
33 1 2 1 22 63 64
34 1 2 1 22 64 65
35 1 2 1 22 65 66
36 1 2 1 22 66 8
37 2 2 1 1 60 61 50
38 2 2 1 1 10 83 58
39 2 2 1 1 51 84 9
40 2 2 1 1 43 85 44
41 2 2 1 1 8 79 66
42 2 2 1 1 59 78 7
43 2 2 1 1 44 85 77
44 2 2 1 1 26 83 10
45 2 2 1 1 9 84 25
46 2 2 1 1 39 64 65
47 2 2 1 1 20 79 8
48 2 2 1 1 7 78 19
49 2 2 1 1 50 61 14
50 2 2 1 1 36 88 17
51 2 2 1 1 35 88 36
52 2 2 1 1 70 97 80
53 2 2 1 1 78 97 70
54 2 2 1 1 55 87 11
55 2 2 1 1 75 101 83
56 2 2 1 1 32 31 47
57 2 2 1 1 11 87 27
58 2 2 1 1 42 28 27
59 2 2 1 1 14 62 41
60 2 2 1 1 46 32 47
61 2 2 1 1 92 96 67
62 2 2 1 1 84 92 67
63 2 2 1 1 16 6 37
64 2 2 1 1 41 28 42
65 2 2 1 1 47 31 48
66 2 2 1 1 74 101 77
67 2 2 1 1 83 96 75
68 2 2 1 1 27 87 42
69 2 2 1 1 77 99 74
70 2 2 1 1 50 82 60
71 2 2 1 1 83 101 74
72 2 2 1 1 81 91 53
73 2 2 1 1 61 62 14
74 2 2 1 1 36 16 37
75 2 2 1 1 58 83 74
76 2 2 1 1 59 82 78
77 2 2 1 1 71 84 51
78 2 2 1 1 73 91 81
79 2 2 1 1 92 103 76
80 2 2 1 1 81 88 35
81 2 2 1 1 89 103 92
82 2 2 1 1 17 16 36
83 2 2 1 1 17 88 5
84 2 2 1 1 5 88 54
85 2 2 1 1 62 98 41
86 2 2 1 1 49 82 50
87 2 2 1 1 80 90 70
88 2 2 1 1 67 96 83
89 2 2 1 1 42 87 43
90 2 2 1 1 69 75 72
91 2 2 1 1 39 102 40
92 2 2 1 1 58 74 57
93 2 2 1 1 52 71 51
94 2 2 1 1 48 80 49
95 2 2 1 1 69 72 45
96 2 2 1 1 79 93 66
97 2 2 1 1 44 69 45
98 2 2 1 1 35 104 81
99 2 2 1 1 33 68 34
100 2 2 1 1 75 76 72
101 2 2 1 1 41 98 28
102 2 2 1 1 68 73 34
103 2 2 1 1 44 77 69
104 2 2 1 1 66 93 65
105 2 2 1 1 25 67 26
106 2 2 1 1 19 70 20
107 2 2 1 1 54 81 53
108 2 2 1 1 60 82 59
109 2 2 1 1 46 95 32
110 2 2 1 1 85 87 55
111 2 2 1 1 56 85 55
112 2 2 1 1 33 86 68
113 2 2 1 1 67 83 26
114 2 2 1 1 25 84 67
115 2 2 1 1 32 95 33
116 2 2 1 1 70 79 20
117 2 2 1 1 74 99 57
118 2 2 1 1 19 78 70
119 2 2 1 1 53 91 52
120 2 2 1 1 85 99 77
121 2 2 1 1 43 87 85
122 2 2 1 1 93 102 65
123 2 2 1 1 77 101 69
124 2 2 1 1 56 99 85
125 2 2 1 1 76 103 72
126 2 2 1 1 12 98 62
127 2 2 1 1 49 97 82
128 2 2 1 1 80 94 90
129 2 2 1 1 68 89 73
130 2 2 1 1 72 103 86
131 2 2 1 1 54 88 81
132 2 2 1 1 90 94 13
133 2 2 1 1 13 94 31
134 2 2 1 1 31 94 48
135 2 2 1 1 65 102 39
136 2 2 1 1 52 91 71
137 2 2 1 1 68 103 89
138 2 2 1 1 70 90 79
139 2 2 1 1 89 91 73
140 2 2 1 1 71 91 89
141 2 2 1 1 48 94 80
142 2 2 1 1 76 96 92
143 2 2 1 1 71 92 84
144 2 2 1 1 40 105 13
145 2 2 1 1 80 97 49
146 2 2 1 1 75 96 76
147 2 2 1 1 81 104 73
148 2 2 1 1 82 97 78
149 2 2 1 1 57 99 56
150 2 2 1 1 33 95 86
151 2 2 1 1 69 101 75
152 2 2 1 1 45 100 46
153 2 2 1 1 72 100 45
154 2 2 1 1 28 98 12
155 2 2 1 1 89 92 71
156 2 2 1 1 34 104 35
157 2 2 1 1 13 105 90
158 2 2 1 1 73 104 34
159 2 2 1 1 86 100 72
160 2 2 1 1 86 103 68
161 2 2 1 1 95 100 86
162 2 2 1 1 46 100 95
163 2 2 1 1 90 105 79
164 2 2 1 1 79 105 93
165 2 2 1 1 40 102 93
166 2 2 1 1 93 105 40
167 2 2 1 1 37 6 63
168 2 2 1 1 37 63 38
169 2 2 1 1 38 64 39
170 2 2 1 1 63 64 38
171 2 2 2 2 17 5 15
172 2 2 2 2 16 18 6
173 2 2 2 2 18 106 1
174 2 2 2 2 1 106 15
175 2 2 2 2 15 106 17
176 2 2 2 2 16 106 18
177 2 2 2 2 17 106 16
178 2 2 2 3 21 7 19
179 2 2 2 3 22 20 8
180 2 2 2 3 2 107 22
181 2 2 2 3 21 107 2
182 2 2 2 3 19 107 21
183 2 2 2 3 22 107 20
184 2 2 2 3 20 107 19
185 2 2 2 4 28 12 30
186 2 2 2 4 29 11 27
187 2 2 2 4 3 108 30
188 2 2 2 4 29 108 3
189 2 2 2 4 30 108 28
190 2 2 2 4 27 108 29
191 2 2 2 4 28 108 27
192 2 2 2 5 23 9 25
193 2 2 2 5 26 10 24
194 2 2 2 5 4 109 24
195 2 2 2 5 23 109 4
196 2 2 2 5 25 109 23
197 2 2 2 5 24 109 26
198 2 2 2 5 26 109 25
199 2 2 2 6 111 113 32
200 2 2 2 6 32 113 31
201 2 2 2 6 33 111 32
202 2 2 2 6 36 112 35
203 2 2 2 6 39 110 38
204 2 2 2 6 40 115 39
205 2 2 2 6 39 115 110
206 2 2 2 6 38 116 37
207 2 2 2 6 110 116 38
208 2 2 2 6 33 117 111
209 2 2 2 6 34 117 33
210 2 2 2 6 35 117 34
211 2 2 2 6 37 116 36
212 2 2 2 6 36 116 112
213 2 2 2 6 112 117 35
214 2 2 2 6 13 115 40
215 2 2 2 6 31 113 13
216 2 2 2 6 113 115 13
217 2 2 2 6 114 117 112
218 2 2 2 6 112 116 114
219 2 2 2 6 111 117 114
220 2 2 2 6 114 116 110
221 2 2 2 6 111 114 113
222 2 2 2 6 110 115 114
223 2 2 2 6 114 115 113
224 2 2 2 7 118 121 50
225 2 2 2 7 50 121 49
226 2 2 2 7 43 120 42
227 2 2 2 7 46 119 45
228 2 2 2 7 14 118 50
229 2 2 2 7 46 123 119
230 2 2 2 7 47 123 46
231 2 2 2 7 119 124 45
232 2 2 2 7 41 125 14
233 2 2 2 7 14 125 118
234 2 2 2 7 42 125 41
235 2 2 2 7 43 124 120
236 2 2 2 7 44 124 43
237 2 2 2 7 120 125 42
238 2 2 2 7 45 124 44
239 2 2 2 7 48 123 47
240 2 2 2 7 49 121 48
241 2 2 2 7 121 123 48
242 2 2 2 7 120 124 122
243 2 2 2 7 122 125 120
244 2 2 2 7 122 124 119
245 2 2 2 7 118 125 122
246 2 2 2 7 118 122 121
247 2 2 2 7 122 123 121
248 2 2 2 7 119 123 122
$EndElements
$Periodic
6
1 9 5
Affine 1 0 0 1 0 1 0 0 0 0 1 0 0 0 0 1
3
2 1
7 5
21 15
1 12 7
Affine 1 0 0 0 0 1 0 1 0 0 1 0 0 0 0 1
3
4 1
10 6
24 18
1 15 10
Affine 1 0 0 0 0 1 0 1 0 0 1 0 0 0 0 1
3
3 2
11 8
29 22
1 16 11
Affine 1 0 0 1 0 1 0 0 0 0 1 0 0 0 0 1
3
3 4
12 9
30 23
1 20 22
Affine 1 0 0 0 0 1 0 1 0 0 1 0 0 0 0 1
6
10 6
11 8
55 66
56 65
57 64
58 63
1 21 19
Affine 1 0 0 1 0 1 0 0 0 0 1 0 0 0 0 1
6
7 5
12 9
59 54
60 53
61 52
62 51
$EndPeriodic
