$MeshFormat
2.2 0 8
$EndMeshFormat
$PhysicalNames
6
1 1 "bottom"
1 2 "right"
1 3 "top"
1 4 "left"
2 1 "Matrix"
2 2 "Inclusions"
$EndPhysicalNames
$Nodes
175
1 0 0 0
2 1 0 0
3 1 1 0
4 0 1 0
5 -4.341930715910685e-15 0.15 0
6 0.15 0 0
7 0.9999999999999957 0.15 0
8 0.85 -4.453911707999524e-15 0
9 -4.277033691051009e-15 0.85 0
10 0.15 1 0
11 0.85 1.000000000000004 0
12 0.9999999999999958 0.85 0
13 0.65 0.5 0
14 0 0.07499999999999996 0
15 0.1299038105676659 0.07499999999999987 0
16 0.07500000000000025 0.1299038105676656 0
17 0.07500000000000009 0 0
18 0.925 0.1299038105676658 0
19 0.8700961894323342 0.07500000000000016 0
20 1 0.07499999999999996 0
21 0.925 0 0
22 0 0.9249999999999999 0
23 0.07500000000000007 1 0
24 0.07500000000000001 0.8700961894323342 0
25 0.1299038105676658 0.9249999999999999 0
26 0.8700961894323342 0.925 0
27 0.9249999999999999 0.8700961894323342 0
28 0.925 1 0
29 1 0.9249999999999999 0
30 0.6213525491562422 0.5881677878438709 0
31 0.5463525491562422 0.642658477444273 0
32 0.4536474508437582 0.6426584774442732 0
33 0.3786474508437581 0.5881677878438712 0
34 0.35 0.5000000000000006 0
35 0.3786474508437574 0.4118322121561297 0
36 0.453647450843757 0.3573415225557273 0
37 0.5463525491562412 0.3573415225557267 0
38 0.6213525491562417 0.4118322121561286 0
39 0 0.7500000000000002 0
40 0 0.6500000000000004 0
41 0 0.5500000000000003 0
42 0 0.4500000000000003 0
43 0 0.3500000000000002 0
44 0 0.2500000000000001 0
45 0.7499999999999998 1 0
46 0.6499999999999998 1 0
47 0.5499999999999997 1 0
48 0.4499999999999995 1 0
49 0.3499999999999995 1 0
50 0.2499999999999998 1 0
51 1 0.2500000000000001 0
52 1 0.3500000000000002 0
53 1 0.4500000000000003 0
54 1 0.5500000000000003 0
55 1 0.6500000000000004 0
56 1 0.7500000000000002 0
57 0.2499999999999997 0 0
58 0.3499999999999995 0 0
59 0.4499999999999996 0 0
60 0.5499999999999997 0 0
61 0.6499999999999998 0 0
62 0.7499999999999998 0 0
63 0.8575451917939633 0.8430401982103606 0
64 0.857545191793963 0.1569598017896391 0
65 0.1424548082060366 0.1569598017896403 0
66 0.1424548082060371 0.8430401982103599 0
67 0.6342063018584008 0.3207429623305059 0
68 0.6342063018584017 0.6792570376694932 0
69 0.3657936981415989 0.6792570376694936 0
70 0.3657936981415975 0.3207429623305074 0
71 0.6989109441521344 0.63389192000656 0
72 0.297096358672403 0.6376981704771012 0
73 0.7029036413275969 0.3623018295228987 0
74 0.3010890558478651 0.3661080799934406 0
75 0.4997737580772362 0.7345807288235862 0
76 0.5001097763579375 0.2654546578034097 0
77 0.913931658947279 0.4991924627452725 0
78 0.0860683410527211 0.500807537254728 0
79 0.3996750833614836 0.917422931087105 0
80 0.6006556850230146 0.08257706615815347 0
81 0.6003196667423126 0.9174583204688422 0
82 0.3996750833614832 0.08257706891289524 0
83 0.9176273461321225 0.6962820266655695 0
84 0.9183520717269 0.3028924570587117 0
85 0.08237265386787729 0.3037179733344314 0
86 0.08164792827309997 0.6971075429412881 0
87 0.7118503175481047 0.7219683664085159 0
88 0.712513104325129 0.2773915158280027 0
89 0.2874868956748705 0.7226084841719969 0
90 0.2881496824518942 0.2780316335914846 0
91 0.3577813777137985 0.230814647717813 0
92 0.2767002385911476 0.2034513823146142 0
93 0.6422186222862003 0.7691853522821873 0
94 0.723299761408851 0.7965486176853869 0
95 0.3580707884598437 0.7694338213889949 0
96 0.2766380092526528 0.7966967154971021 0
97 0.6420389878980941 0.2305661758562632 0
98 0.7233802868070028 0.2033032840437732 0
99 0.7725603927121147 0.7542443698457744 0
100 0.7727058598444873 0.2455910957252929 0
101 0.2274396072878843 0.2457556301542268 0
102 0.2272977993674437 0.7544089041828814 0
103 0.7942298691916689 0.09004343040455559 0
104 0.7942298691916696 0.9099565695954437 0
105 0.2057701308083307 0.9099565695954437 0
106 0.20577013080833 0.09004343040455698 0
107 0.9152628586535538 0.4009433672623571 0
108 0.8344668269913196 0.4500515321924132 0
109 0.8318217842906668 0.5432750312625969 0
110 0.8466127926219165 0.3539887312985535 0
111 0.915124713142959 0.5970579833357819 0
112 0.8433394685243047 0.6400551406443988 0
113 0.08473714134644617 0.5990566327376433 0
114 0.1655331730086805 0.5499484678075873 0
115 0.1681782157093332 0.4567249687374036 0
116 0.1533872073780835 0.6460112687014465 0
117 0.08487528685704104 0.4029420166642187 0
118 0.1566605314756949 0.3599448593556018 0
119 0.9208053995675751 0.2072766743630761 0
120 0.920719122711054 0.7926250498898144 0
121 0.07928087728894562 0.2073749501101866 0
122 0.07919460043242477 0.7927233256369228 0
123 0.6993472528466157 0.07661641897464022 0
124 0.6992912497998329 0.9233894787965251 0
125 0.3007078752174666 0.9233835805662357 0
126 0.3007078752174654 0.07661641943376507 0
127 0.4997728830945353 0.9153538023417528 0
128 0.4391083033538342 0.8207506407456637 0
129 0.5589593128626265 0.8195807281211061 0
130 0.5001649044220211 0.08468748205640908 0
131 0.4394589802890271 0.1793261392391851 0
132 0.5591357557820511 0.1804107527039584 0
133 0.7468198395274919 0.496673500776914 0
134 0.2531801604725081 0.5033264992230865 0
135 0.6559901726048364 0.8472733244065094 0
136 0.6559901726048345 0.1527266755934893 0
137 0.3440098273951649 0.8472733244065103 0
138 0.3440098273951619 0.152726675593491 0
139 0.5763686742105449 0.2709032142499728 0
140 0.5763021088481414 0.7290524648681291 0
141 0.4232787997752543 0.7293361412144023 0
142 0.4233582566692236 0.2707359859293285 0
143 0.7644176806894034 0.5934521163406778 0
144 0.2355823193105963 0.4065478836593227 0
145 0.7915795774467741 0.1805836127180178 0
146 0.7909612319968828 0.8198530381238747 0
147 0.2084230362760335 0.8194163872163918 0
148 0.2090387680031163 0.1801469618761271 0
149 0.7673708873116614 0.4032609492705521 0
150 0.2326291126883386 0.596739050729448 0
151 0.6974095849580122 0.4378371020178566 0
152 0.3025904150419878 0.5621628979821435 0
153 0.7754199914920693 0.681078002408258 0
154 0.22458000850793 0.3189219975917427 0
155 0.7772579051261908 0.3166130034069464 0
156 0.2227427047424644 0.6833869965777489 0
157 0.840694114018258 0.2519864823371768 0
158 0.839738963623216 0.7467396893982929 0
159 0.1593068692393696 0.7480135176381484 0
160 0.1602610363767836 0.2532603106017082 0
161 0.6941818409088716 0.5611710613089232 0
162 0.3058181590911281 0.4388289386910774 0
163 0.7407244234668833 0.1366484782278133 0
164 0.7388540488011157 0.8624627131110045 0
165 0.2592811186502106 0.863351521700477 0
166 0.2611458619149336 0.1375378887492306 0
167 0.06495190528383304 0.06495190528383299 0
168 0.935048094716167 0.06495190528383293 0
169 0.9350480947161672 0.9350480947161672 0
170 0.06495190528383288 0.9350480947161671 0
171 0.4492874406257833 0.4883159786300148 0
172 0.5565539141685421 0.5236771822606137 0
173 0.5472967567527902 0.444893861429154 0
174 0.4780215761900922 0.5719242049008033 0
175 0.477341497182709 0.4222053744218599 0
$EndNodes
$Elements
348
1 1 2 4 5 5 14
2 1 2 4 5 14 1
3 1 2 1 7 1 17
4 1 2 1 7 17 6
5 1 2 2 9 2 20
6 1 2 2 9 20 7
7 1 2 1 10 8 21
8 1 2 1 10 21 2
9 1 2 4 11 4 22
10 1 2 4 11 22 9
11 1 2 3 12 10 23
12 1 2 3 12 23 4
13 1 2 3 15 3 28
14 1 2 3 15 28 11
15 1 2 2 16 12 29
16 1 2 2 16 29 3
17 1 2 4 18 9 39
18 1 2 4 18 39 40
19 1 2 4 18 40 41
20 1 2 4 18 41 42
21 1 2 4 18 42 43
22 1 2 4 18 43 44
23 1 2 4 18 44 5
24 1 2 3 19 11 45
25 1 2 3 19 45 46
26 1 2 3 19 46 47
27 1 2 3 19 47 48
28 1 2 3 19 48 49
29 1 2 3 19 49 50
30 1 2 3 19 50 10
31 1 2 2 20 7 51
32 1 2 2 20 51 52
33 1 2 2 20 52 53
34 1 2 2 20 53 54
35 1 2 2 20 54 55
36 1 2 2 20 55 56
37 1 2 2 20 56 12
38 1 2 1 21 6 57
39 1 2 1 21 57 58
40 1 2 1 21 58 59
41 1 2 1 21 59 60
42 1 2 1 21 60 61
43 1 2 1 21 61 62
44 1 2 1 21 62 8
45 2 2 1 1 12 120 56
46 2 2 1 1 51 119 7
47 2 2 1 1 39 122 9
48 2 2 1 1 5 121 44
49 2 2 1 1 9 122 24
50 2 2 1 1 16 121 5
51 2 2 1 1 7 119 18
52 2 2 1 1 27 120 12
53 2 2 1 1 8 103 62
54 2 2 1 1 45 104 11
55 2 2 1 1 10 105 50
56 2 2 1 1 57 106 6
57 2 2 1 1 131 132 76
58 2 2 1 1 11 104 26
59 2 2 1 1 19 103 8
60 2 2 1 1 25 105 10
61 2 2 1 1 6 106 15
62 2 2 1 1 75 129 128
63 2 2 1 1 64 157 145
64 2 2 1 1 146 158 63
65 2 2 1 1 66 159 147
66 2 2 1 1 148 160 65
67 2 2 1 1 118 154 144
68 2 2 1 1 112 153 143
69 2 2 1 1 144 154 74
70 2 2 1 1 143 153 71
71 2 2 1 1 63 158 120
72 2 2 1 1 119 157 64
73 2 2 1 1 65 160 121
74 2 2 1 1 122 159 66
75 2 2 1 1 145 157 100
76 2 2 1 1 147 159 102
77 2 2 1 1 99 158 146
78 2 2 1 1 101 160 148
79 2 2 1 1 93 135 129
80 2 2 1 1 132 139 76
81 2 2 1 1 91 138 131
82 2 2 1 1 128 137 95
83 2 2 1 1 75 140 129
84 2 2 1 1 128 141 75
85 2 2 1 1 76 142 131
86 2 2 1 1 132 136 97
87 2 2 1 1 84 119 51
88 2 2 1 1 56 120 83
89 2 2 1 1 44 121 85
90 2 2 1 1 86 122 39
91 2 2 1 1 83 112 111
92 2 2 1 1 85 118 117
93 2 2 1 1 45 124 104
94 2 2 1 1 103 123 62
95 2 2 1 1 105 125 50
96 2 2 1 1 57 126 106
97 2 2 1 1 129 140 93
98 2 2 1 1 83 111 55
99 2 2 1 1 85 117 43
100 2 2 1 1 107 110 84
101 2 2 1 1 113 116 86
102 2 2 1 1 131 142 91
103 2 2 1 1 95 141 128
104 2 2 1 1 97 139 132
105 2 2 1 1 112 158 153
106 2 2 1 1 118 160 154
107 2 2 1 1 129 135 81
108 2 2 1 1 83 158 112
109 2 2 1 1 85 160 118
110 2 2 1 1 52 107 84
111 2 2 1 1 40 113 86
112 2 2 1 1 131 138 82
113 2 2 1 1 79 137 128
114 2 2 1 1 80 136 132
115 2 2 1 1 155 157 110
116 2 2 1 1 156 159 116
117 2 2 1 1 130 132 131
118 2 2 1 1 55 111 54
119 2 2 1 1 43 117 42
120 2 2 1 1 79 128 127
121 2 2 1 1 130 131 82
122 2 2 1 1 52 84 51
123 2 2 1 1 56 83 55
124 2 2 1 1 44 85 43
125 2 2 1 1 40 86 39
126 2 2 1 1 108 110 107
127 2 2 1 1 114 116 113
128 2 2 1 1 117 118 115
129 2 2 1 1 111 112 109
130 2 2 1 1 128 129 127
131 2 2 1 1 80 132 130
132 2 2 1 1 98 100 88
133 2 2 1 1 87 99 94
134 2 2 1 1 90 101 92
135 2 2 1 1 96 102 89
136 2 2 1 1 127 129 81
137 2 2 1 1 78 113 41
138 2 2 1 1 77 107 53
139 2 2 1 1 77 108 107
140 2 2 1 1 78 114 113
141 2 2 1 1 79 127 48
142 2 2 1 1 59 130 82
143 2 2 1 1 67 88 73
144 2 2 1 1 71 87 68
145 2 2 1 1 69 89 72
146 2 2 1 1 74 90 70
147 2 2 1 1 62 123 61
148 2 2 1 1 46 124 45
149 2 2 1 1 58 126 57
150 2 2 1 1 50 125 49
151 2 2 1 1 41 113 40
152 2 2 1 1 53 107 52
153 2 2 1 1 42 117 78
154 2 2 1 1 54 111 77
155 2 2 1 1 30 68 31
156 2 2 1 1 32 69 33
157 2 2 1 1 37 67 38
158 2 2 1 1 35 70 36
159 2 2 1 1 61 123 80
160 2 2 1 1 81 124 46
161 2 2 1 1 49 125 79
162 2 2 1 1 82 126 58
163 2 2 1 1 115 134 114
164 2 2 1 1 109 133 108
165 2 2 1 1 110 157 84
166 2 2 1 1 116 159 86
167 2 2 1 1 80 130 60
168 2 2 1 1 47 127 81
169 2 2 1 1 87 94 93
170 2 2 1 1 97 98 88
171 2 2 1 1 95 96 89
172 2 2 1 1 90 92 91
173 2 2 1 1 54 77 53
174 2 2 1 1 42 78 41
175 2 2 1 1 49 79 48
176 2 2 1 1 61 80 60
177 2 2 1 1 59 82 58
178 2 2 1 1 47 81 46
179 2 2 1 1 77 109 108
180 2 2 1 1 78 115 114
181 2 2 1 1 78 117 115
182 2 2 1 1 77 111 109
183 2 2 1 1 48 127 47
184 2 2 1 1 60 130 59
185 2 2 1 1 69 95 89
186 2 2 1 1 87 93 68
187 2 2 1 1 67 97 88
188 2 2 1 1 90 91 70
189 2 2 1 1 67 73 38
190 2 2 1 1 69 72 33
191 2 2 1 1 30 71 68
192 2 2 1 1 35 74 70
193 2 2 1 1 36 76 37
194 2 2 1 1 31 75 32
195 2 2 1 1 153 158 99
196 2 2 1 1 154 160 101
197 2 2 1 1 100 157 155
198 2 2 1 1 102 159 156
199 2 2 1 1 18 64 19
200 2 2 1 1 26 63 27
201 2 2 1 1 24 66 25
202 2 2 1 1 15 65 16
203 2 2 1 1 112 143 109
204 2 2 1 1 118 144 115
205 2 2 1 1 63 120 27
206 2 2 1 1 18 119 64
207 2 2 1 1 24 122 66
208 2 2 1 1 65 121 16
209 2 2 1 1 37 139 67
210 2 2 1 1 68 140 31
211 2 2 1 1 32 141 69
212 2 2 1 1 70 142 36
213 2 2 1 1 134 150 114
214 2 2 1 1 133 149 108
215 2 2 1 1 71 153 87
216 2 2 1 1 74 154 90
217 2 2 1 1 88 155 73
218 2 2 1 1 89 156 72
219 2 2 1 1 15 106 65
220 2 2 1 1 66 105 25
221 2 2 1 1 26 104 63
222 2 2 1 1 64 103 19
223 2 2 1 1 76 139 37
224 2 2 1 1 31 140 75
225 2 2 1 1 36 142 76
226 2 2 1 1 75 141 32
227 2 2 1 1 73 155 149
228 2 2 1 1 72 156 150
229 2 2 1 1 134 152 150
230 2 2 1 1 133 151 149
231 2 2 1 1 103 163 123
232 2 2 1 1 124 164 104
233 2 2 1 1 105 165 125
234 2 2 1 1 126 166 106
235 2 2 1 1 81 135 124
236 2 2 1 1 82 138 126
237 2 2 1 1 123 136 80
238 2 2 1 1 125 137 79
239 2 2 1 1 106 148 65
240 2 2 1 1 104 146 63
241 2 2 1 1 66 147 105
242 2 2 1 1 64 145 103
243 2 2 1 1 84 157 119
244 2 2 1 1 120 158 83
245 2 2 1 1 121 160 85
246 2 2 1 1 86 159 122
247 2 2 1 1 94 135 93
248 2 2 1 1 97 136 98
249 2 2 1 1 92 138 91
250 2 2 1 1 95 137 96
251 2 2 1 1 134 162 34
252 2 2 1 1 133 161 13
253 2 2 1 1 38 151 13
254 2 2 1 1 33 152 34
255 2 2 1 1 99 146 94
256 2 2 1 1 98 145 100
257 2 2 1 1 96 147 102
258 2 2 1 1 101 148 92
259 2 2 1 1 108 149 110
260 2 2 1 1 114 150 116
261 2 2 1 1 34 152 134
262 2 2 1 1 13 151 133
263 2 2 1 1 73 151 38
264 2 2 1 1 72 152 33
265 2 2 1 1 94 164 135
266 2 2 1 1 137 165 96
267 2 2 1 1 136 163 98
268 2 2 1 1 92 166 138
269 2 2 1 1 67 139 97
270 2 2 1 1 93 140 68
271 2 2 1 1 69 141 95
272 2 2 1 1 91 142 70
273 2 2 1 1 109 143 133
274 2 2 1 1 115 144 134
275 2 2 1 1 138 166 126
276 2 2 1 1 125 165 137
277 2 2 1 1 135 164 124
278 2 2 1 1 123 163 136
279 2 2 1 1 87 153 99
280 2 2 1 1 90 154 101
281 2 2 1 1 100 155 88
282 2 2 1 1 102 156 89
283 2 2 1 1 13 161 30
284 2 2 1 1 34 162 35
285 2 2 1 1 30 161 71
286 2 2 1 1 35 162 74
287 2 2 1 1 149 155 110
288 2 2 1 1 150 156 116
289 2 2 1 1 150 152 72
290 2 2 1 1 149 151 73
291 2 2 1 1 106 166 148
292 2 2 1 1 104 164 146
293 2 2 1 1 147 165 105
294 2 2 1 1 145 163 103
295 2 2 1 1 143 161 133
296 2 2 1 1 144 162 134
297 2 2 1 1 71 161 143
298 2 2 1 1 74 162 144
299 2 2 1 1 98 163 145
300 2 2 1 1 146 164 94
301 2 2 1 1 96 165 147
302 2 2 1 1 148 166 92
303 2 2 2 2 5 14 16
304 2 2 2 2 17 6 15
305 2 2 2 2 17 167 1
306 2 2 2 2 1 167 14
307 2 2 2 2 14 167 16
308 2 2 2 2 15 167 17
309 2 2 2 2 16 167 15
310 2 2 2 3 19 8 21
311 2 2 2 3 20 7 18
312 2 2 2 3 20 168 2
313 2 2 2 3 2 168 21
314 2 2 2 3 18 168 20
315 2 2 2 3 21 168 19
316 2 2 2 3 19 168 18
317 2 2 2 4 28 11 26
318 2 2 2 4 27 12 29
319 2 2 2 4 3 169 29
320 2 2 2 4 28 169 3
321 2 2 2 4 29 169 27
322 2 2 2 4 26 169 28
323 2 2 2 4 27 169 26
324 2 2 2 5 22 9 24
325 2 2 2 5 25 10 23
326 2 2 2 5 22 170 4
327 2 2 2 5 4 170 23
328 2 2 2 5 23 170 25
329 2 2 2 5 24 170 22
330 2 2 2 5 25 170 24
331 2 2 2 6 171 173 172
332 2 2 2 6 31 174 172
333 2 2 2 6 171 174 33
334 2 2 2 6 172 174 171
335 2 2 2 6 31 172 30
336 2 2 2 6 34 171 33
337 2 2 2 6 172 173 13
338 2 2 2 6 13 173 38
339 2 2 2 6 171 175 173
340 2 2 2 6 33 174 32
341 2 2 2 6 32 174 31
342 2 2 2 6 35 171 34
343 2 2 2 6 30 172 13
344 2 2 2 6 36 175 35
345 2 2 2 6 35 175 171
346 2 2 2 6 37 175 36
347 2 2 2 6 38 173 37
348 2 2 2 6 173 175 37
$EndElements
$Periodic
6
1 9 5
Affine 1 0 0 1 0 1 0 0 0 0 1 0 0 0 0 1
3
2 1
7 5
20 14
1 12 7
Affine 1 0 0 0 0 1 0 1 0 0 1 0 0 0 0 1
3
4 1
10 6
23 17
1 15 10
Affine 1 0 0 0 0 1 0 1 0 0 1 0 0 0 0 1
3
3 2
11 8
28 21
1 16 11
Affine 1 0 0 1 0 1 0 0 0 0 1 0 0 0 0 1
3
3 4
12 9
29 22
1 19 21
Affine 1 0 0 0 0 1 0 1 0 0 1 0 0 0 0 1
8
10 6
11 8
45 62
46 61
47 60
48 59
49 58
50 57
1 20 18
Affine 1 0 0 1 0 1 0 0 0 0 1 0 0 0 0 1
8
7 5
12 9
51 44
52 43
53 42
54 41
55 40
56 39
$EndPeriodic
